<?xml version="1.0" encoding="UTF-8" standalone="no"?>
<!DOCTYPE svg PUBLIC "-//W3C//DTD SVG 1.1//EN"
 "http://www.w3.org/Graphics/SVG/1.1/DTD/svg11.dtd">
<!-- Generated by graphviz version 2.43.0 (0)
 -->
<!-- Title: %3 Pages: 1 -->
<svg width="1846pt" height="980pt"
 viewBox="0.00 0.00 1846.00 980.00" xmlns="http://www.w3.org/2000/svg" xmlns:xlink="http://www.w3.org/1999/xlink">
<g id="graph0" class="graph" transform="scale(1 1) rotate(0) translate(4 976)">
<title>%3</title>
<polygon fill="white" stroke="transparent" points="-4,4 -4,-976 1842,-976 1842,4 -4,4"/>
<!-- pr -->
<g id="node1" class="node">
<title>pr</title>
<ellipse fill="none" stroke="blue" cx="247" cy="-954" rx="27" ry="18"/>
<text text-anchor="middle" x="247" y="-950.3" font-family="Times,serif" font-size="14.00">pr</text>
</g>
<!-- hm -->
<g id="node2" class="node">
<title>hm</title>
<ellipse fill="none" stroke="red" cx="226" cy="-594" rx="27" ry="18"/>
<text text-anchor="middle" x="226" y="-590.3" font-family="Times,serif" font-size="14.00">hm</text>
</g>
<!-- pr&#45;&gt;hm -->
<g id="edge1" class="edge">
<title>pr&#45;&gt;hm</title>
<path fill="none" stroke="black" d="M230.02,-939.7C202.69,-916.67 152,-866.47 152,-811 152,-811 152,-811 152,-737 152,-690.59 183.47,-644.33 205.36,-617.75"/>
<polygon fill="black" stroke="black" points="208.27,-619.73 212.08,-609.84 202.94,-615.2 208.27,-619.73"/>
</g>
<!-- pd -->
<g id="node27" class="node">
<title>pd</title>
<ellipse fill="none" stroke="red" cx="359" cy="-882" rx="27" ry="18"/>
<text text-anchor="middle" x="359" y="-878.3" font-family="Times,serif" font-size="14.00">pd</text>
</g>
<!-- pr&#45;&gt;pd -->
<g id="edge2" class="edge">
<title>pr&#45;&gt;pd</title>
<path fill="none" stroke="black" d="M263.14,-939.5C280.33,-927.74 307.54,-910.68 328.68,-898.38"/>
<polygon fill="black" stroke="black" points="330.68,-901.28 337.62,-893.27 327.2,-895.2 330.68,-901.28"/>
</g>
<!-- vx -->
<g id="node30" class="node">
<title>vx</title>
<ellipse fill="none" stroke="red" cx="131" cy="-378" rx="27" ry="18"/>
<text text-anchor="middle" x="131" y="-374.3" font-family="Times,serif" font-size="14.00">vx</text>
</g>
<!-- pr&#45;&gt;vx -->
<g id="edge3" class="edge">
<title>pr&#45;&gt;vx</title>
<path fill="none" stroke="black" d="M225.63,-942.66C188.04,-922.81 114,-875.52 114,-811 114,-811 114,-811 114,-521 114,-480.71 120.83,-434.44 125.83,-405.96"/>
<polygon fill="black" stroke="black" points="129.3,-406.43 127.64,-395.97 122.42,-405.19 129.3,-406.43"/>
</g>
<!-- cl -->
<g id="node44" class="node">
<title>cl</title>
<ellipse fill="none" stroke="red" cx="226" cy="-666" rx="27" ry="18"/>
<text text-anchor="middle" x="226" y="-662.3" font-family="Times,serif" font-size="14.00">cl</text>
</g>
<!-- pr&#45;&gt;cl -->
<g id="edge4" class="edge">
<title>pr&#45;&gt;cl</title>
<path fill="none" stroke="black" d="M240.63,-936.34C226.8,-898.13 196.3,-801.19 209,-720 210.38,-711.18 212.98,-701.82 215.74,-693.46"/>
<polygon fill="black" stroke="black" points="219.1,-694.45 219.11,-683.86 212.49,-692.13 219.1,-694.45"/>
</g>
<!-- vn -->
<g id="node58" class="node">
<title>vn</title>
<ellipse fill="none" stroke="blue" cx="868" cy="-810" rx="27" ry="18"/>
<text text-anchor="middle" x="868" y="-806.3" font-family="Times,serif" font-size="14.00">vn</text>
</g>
<!-- pr&#45;&gt;vn -->
<g id="edge5" class="edge">
<title>pr&#45;&gt;vn</title>
<path fill="none" stroke="black" d="M274.09,-952.13C366.05,-948.88 665.47,-935.72 754,-900 791.12,-885.02 826.22,-854.18 847.42,-833.05"/>
<polygon fill="black" stroke="black" points="850.07,-835.34 854.58,-825.75 845.08,-830.44 850.07,-835.34"/>
</g>
<!-- qb -->
<g id="node42" class="node">
<title>qb</title>
<ellipse fill="none" stroke="red" cx="291" cy="-522" rx="27" ry="18"/>
<text text-anchor="middle" x="291" y="-518.3" font-family="Times,serif" font-size="14.00">qb</text>
</g>
<!-- hm&#45;&gt;qb -->
<g id="edge6" class="edge">
<title>hm&#45;&gt;qb</title>
<path fill="none" stroke="black" d="M239.78,-578.15C248.66,-568.6 260.36,-555.99 270.34,-545.25"/>
<polygon fill="black" stroke="black" points="273,-547.53 277.24,-537.82 267.87,-542.77 273,-547.53"/>
</g>
<!-- nm -->
<g id="node3" class="node">
<title>nm</title>
<ellipse fill="none" stroke="red" cx="1697" cy="-306" rx="27" ry="18"/>
<text text-anchor="middle" x="1697" y="-302.3" font-family="Times,serif" font-size="14.00">nm</text>
</g>
<!-- dh -->
<g id="node12" class="node">
<title>dh</title>
<ellipse fill="none" stroke="red" cx="1555" cy="-234" rx="27" ry="18"/>
<text text-anchor="middle" x="1555" y="-230.3" font-family="Times,serif" font-size="14.00">dh</text>
</g>
<!-- nm&#45;&gt;dh -->
<g id="edge7" class="edge">
<title>nm&#45;&gt;dh</title>
<path fill="none" stroke="black" d="M1675.74,-294.52C1651.79,-282.72 1612.68,-263.43 1585.48,-250.03"/>
<polygon fill="black" stroke="black" points="1586.92,-246.83 1576.4,-245.55 1583.83,-253.11 1586.92,-246.83"/>
</g>
<!-- jv -->
<g id="node33" class="node">
<title>jv</title>
<ellipse fill="none" stroke="blue" cx="1614" cy="-738" rx="27" ry="18"/>
<text text-anchor="middle" x="1614" y="-734.3" font-family="Times,serif" font-size="14.00">jv</text>
</g>
<!-- nm&#45;&gt;jv -->
<g id="edge8" class="edge">
<title>nm&#45;&gt;jv</title>
<path fill="none" stroke="black" d="M1714.94,-319.62C1744.45,-342 1800,-391.74 1800,-449 1800,-595 1800,-595 1800,-595 1800,-635.45 1808.18,-654.05 1781,-684 1747.74,-720.65 1689.3,-732.12 1651.12,-735.62"/>
<polygon fill="black" stroke="black" points="1650.63,-732.14 1640.93,-736.4 1651.17,-739.12 1650.63,-732.14"/>
</g>
<!-- lv -->
<g id="node4" class="node">
<title>lv</title>
<ellipse fill="none" stroke="red" cx="1536" cy="-90" rx="27" ry="18"/>
<text text-anchor="middle" x="1536" y="-86.3" font-family="Times,serif" font-size="14.00">lv</text>
</g>
<!-- lv&#45;&gt;jv -->
<g id="edge9" class="edge">
<title>lv&#45;&gt;jv</title>
<path fill="none" stroke="black" d="M1563.07,-91.37C1637.19,-93.94 1838,-112.06 1838,-233 1838,-595 1838,-595 1838,-595 1838,-637.34 1835.3,-655.48 1804,-684 1761.65,-722.59 1693.49,-733.38 1651.36,-736.22"/>
<polygon fill="black" stroke="black" points="1651.02,-732.73 1641.23,-736.78 1651.41,-739.72 1651.02,-732.73"/>
</g>
<!-- tg -->
<g id="node38" class="node">
<title>tg</title>
<ellipse fill="none" stroke="red" cx="1484" cy="-18" rx="27" ry="18"/>
<text text-anchor="middle" x="1484" y="-14.3" font-family="Times,serif" font-size="14.00">tg</text>
</g>
<!-- lv&#45;&gt;tg -->
<g id="edge10" class="edge">
<title>lv&#45;&gt;tg</title>
<path fill="none" stroke="black" d="M1524.46,-73.46C1517.73,-64.4 1509.1,-52.79 1501.54,-42.61"/>
<polygon fill="black" stroke="black" points="1504.28,-40.43 1495.51,-34.49 1498.66,-44.61 1504.28,-40.43"/>
</g>
<!-- dg -->
<g id="node5" class="node">
<title>dg</title>
<ellipse fill="none" stroke="red" cx="616" cy="-738" rx="27" ry="18"/>
<text text-anchor="middle" x="616" y="-734.3" font-family="Times,serif" font-size="14.00">dg</text>
</g>
<!-- jm -->
<g id="node47" class="node">
<title>jm</title>
<ellipse fill="none" stroke="blue" cx="695" cy="-666" rx="27" ry="18"/>
<text text-anchor="middle" x="695" y="-662.3" font-family="Times,serif" font-size="14.00">jm</text>
</g>
<!-- dg&#45;&gt;jm -->
<g id="edge11" class="edge">
<title>dg&#45;&gt;jm</title>
<path fill="none" stroke="black" d="M631.61,-723.17C643.08,-713.01 658.85,-699.03 671.79,-687.56"/>
<polygon fill="black" stroke="black" points="674.26,-690.05 679.42,-680.8 669.62,-684.81 674.26,-690.05"/>
</g>
<!-- tm -->
<g id="node51" class="node">
<title>tm</title>
<ellipse fill="none" stroke="red" cx="507" cy="-594" rx="27" ry="18"/>
<text text-anchor="middle" x="507" y="-590.3" font-family="Times,serif" font-size="14.00">tm</text>
</g>
<!-- dg&#45;&gt;tm -->
<g id="edge12" class="edge">
<title>dg&#45;&gt;tm</title>
<path fill="none" stroke="black" d="M604.13,-721.53C585.04,-696.67 547.42,-647.66 525.02,-618.47"/>
<polygon fill="black" stroke="black" points="527.72,-616.25 518.86,-610.45 522.17,-620.51 527.72,-616.25"/>
</g>
<!-- mt -->
<g id="node6" class="node">
<title>mt</title>
<ellipse fill="none" stroke="red" cx="1678" cy="-810" rx="27" ry="18"/>
<text text-anchor="middle" x="1678" y="-806.3" font-family="Times,serif" font-size="14.00">mt</text>
</g>
<!-- mt&#45;&gt;jv -->
<g id="edge13" class="edge">
<title>mt&#45;&gt;jv</title>
<path fill="none" stroke="black" d="M1664.43,-794.15C1655.69,-784.6 1644.17,-771.99 1634.34,-761.25"/>
<polygon fill="black" stroke="black" points="1636.88,-758.84 1627.55,-753.82 1631.72,-763.57 1636.88,-758.84"/>
</g>
<!-- zp -->
<g id="node54" class="node">
<title>zp</title>
<ellipse fill="none" stroke="red" cx="1745" cy="-666" rx="27" ry="18"/>
<text text-anchor="middle" x="1745" y="-662.3" font-family="Times,serif" font-size="14.00">zp</text>
</g>
<!-- mt&#45;&gt;zp -->
<g id="edge14" class="edge">
<title>mt&#45;&gt;zp</title>
<path fill="none" stroke="black" d="M1685.69,-792.71C1697.24,-768.23 1719.17,-721.74 1732.89,-692.67"/>
<polygon fill="black" stroke="black" points="1736.1,-694.07 1737.2,-683.54 1729.76,-691.09 1736.1,-694.07"/>
</g>
<!-- ln -->
<g id="node7" class="node">
<title>ln</title>
<ellipse fill="none" stroke="blue" cx="1181" cy="-666" rx="27" ry="18"/>
<text text-anchor="middle" x="1181" y="-662.3" font-family="Times,serif" font-size="14.00">ln</text>
</g>
<!-- kj -->
<g id="node8" class="node">
<title>kj</title>
<ellipse fill="none" stroke="blue" cx="995" cy="-522" rx="27" ry="18"/>
<text text-anchor="middle" x="995" y="-518.3" font-family="Times,serif" font-size="14.00">kj</text>
</g>
<!-- ln&#45;&gt;kj -->
<g id="edge15" class="edge">
<title>ln&#45;&gt;kj</title>
<path fill="none" stroke="black" d="M1154.41,-661.98C1121.91,-656.97 1067.07,-644.1 1033,-612 1015.48,-595.5 1005.67,-569.59 1000.43,-549.98"/>
<polygon fill="black" stroke="black" points="1003.79,-548.99 998.02,-540.1 996.99,-550.65 1003.79,-548.99"/>
</g>
<!-- rx -->
<g id="node59" class="node">
<title>rx</title>
<ellipse fill="none" stroke="black" cx="995" cy="-450" rx="27" ry="18"/>
<text text-anchor="middle" x="995" y="-446.3" font-family="Times,serif" font-size="14.00">rx</text>
</g>
<!-- kj&#45;&gt;rx -->
<g id="edge16" class="edge">
<title>kj&#45;&gt;rx</title>
<path fill="none" stroke="black" d="M995,-503.7C995,-495.98 995,-486.71 995,-478.11"/>
<polygon fill="black" stroke="black" points="998.5,-478.1 995,-468.1 991.5,-478.1 998.5,-478.1"/>
</g>
<!-- dr -->
<g id="node9" class="node">
<title>dr</title>
<ellipse fill="none" stroke="blue" cx="1069" cy="-594" rx="27" ry="18"/>
<text text-anchor="middle" x="1069" y="-590.3" font-family="Times,serif" font-size="14.00">dr</text>
</g>
<!-- dr&#45;&gt;kj -->
<g id="edge17" class="edge">
<title>dr&#45;&gt;kj</title>
<path fill="none" stroke="black" d="M1054.02,-578.83C1043.49,-568.87 1029.22,-555.37 1017.34,-544.14"/>
<polygon fill="black" stroke="black" points="1019.62,-541.47 1009.95,-537.14 1014.81,-546.56 1019.62,-541.47"/>
</g>
<!-- dx -->
<g id="node10" class="node">
<title>dx</title>
<ellipse fill="none" stroke="red" cx="1274" cy="-306" rx="27" ry="18"/>
<text text-anchor="middle" x="1274" y="-302.3" font-family="Times,serif" font-size="14.00">dx</text>
</g>
<!-- ts -->
<g id="node19" class="node">
<title>ts</title>
<ellipse fill="none" stroke="red" cx="1302" cy="-234" rx="27" ry="18"/>
<text text-anchor="middle" x="1302" y="-230.3" font-family="Times,serif" font-size="14.00">ts</text>
</g>
<!-- dx&#45;&gt;ts -->
<g id="edge18" class="edge">
<title>dx&#45;&gt;ts</title>
<path fill="none" stroke="black" d="M1280.64,-288.41C1283.91,-280.22 1287.94,-270.14 1291.62,-260.95"/>
<polygon fill="black" stroke="black" points="1294.95,-262.05 1295.41,-251.47 1288.45,-259.45 1294.95,-262.05"/>
</g>
<!-- qs -->
<g id="node11" class="node">
<title>qs</title>
<ellipse fill="none" stroke="blue" cx="1253" cy="-666" rx="27" ry="18"/>
<text text-anchor="middle" x="1253" y="-662.3" font-family="Times,serif" font-size="14.00">qs</text>
</g>
<!-- qs&#45;&gt;dr -->
<g id="edge19" class="edge">
<title>qs&#45;&gt;dr</title>
<path fill="none" stroke="black" d="M1231.86,-654.52C1227.03,-652.26 1221.87,-649.96 1217,-648 1170.46,-629.26 1156.98,-629.62 1110,-612 1106.9,-610.84 1103.68,-609.58 1100.48,-608.31"/>
<polygon fill="black" stroke="black" points="1101.6,-604.99 1091.02,-604.45 1098.96,-611.47 1101.6,-604.99"/>
</g>
<!-- qs&#45;&gt;dx -->
<g id="edge20" class="edge">
<title>qs&#45;&gt;dx</title>
<path fill="none" stroke="black" d="M1231.71,-654.89C1199.94,-639.77 1143.75,-612.96 1143,-612 1118.01,-580.2 1124,-563.45 1124,-523 1124,-523 1124,-523 1124,-449 1124,-384.52 1198,-340.57 1242.05,-320.11"/>
<polygon fill="black" stroke="black" points="1243.53,-323.28 1251.22,-315.99 1240.66,-316.9 1243.53,-323.28"/>
</g>
<!-- rg -->
<g id="node13" class="node">
<title>rg</title>
<ellipse fill="none" stroke="red" cx="1221" cy="-882" rx="27" ry="18"/>
<text text-anchor="middle" x="1221" y="-878.3" font-family="Times,serif" font-size="14.00">rg</text>
</g>
<!-- qs&#45;&gt;rg -->
<g id="edge21" class="edge">
<title>qs&#45;&gt;rg</title>
<path fill="none" stroke="black" d="M1254.32,-684.01C1252.33,-721.16 1239.34,-809.76 1229.62,-854.38"/>
<polygon fill="black" stroke="black" points="1226.19,-853.68 1227.35,-864.21 1233.01,-855.25 1226.19,-853.68"/>
</g>
<!-- kf -->
<g id="node20" class="node">
<title>kf</title>
<ellipse fill="none" stroke="red" cx="1274" cy="-378" rx="27" ry="18"/>
<text text-anchor="middle" x="1274" y="-374.3" font-family="Times,serif" font-size="14.00">kf</text>
</g>
<!-- qs&#45;&gt;kf -->
<g id="edge22" class="edge">
<title>qs&#45;&gt;kf</title>
<path fill="none" stroke="black" d="M1259.37,-648.34C1273.2,-610.13 1303.7,-513.19 1291,-432 1289.62,-423.18 1287.02,-413.82 1284.26,-405.46"/>
<polygon fill="black" stroke="black" points="1287.51,-404.13 1280.89,-395.86 1280.9,-406.45 1287.51,-404.13"/>
</g>
<!-- gl -->
<g id="node26" class="node">
<title>gl</title>
<ellipse fill="none" stroke="red" cx="1255" cy="-450" rx="27" ry="18"/>
<text text-anchor="middle" x="1255" y="-446.3" font-family="Times,serif" font-size="14.00">gl</text>
</g>
<!-- qs&#45;&gt;gl -->
<g id="edge23" class="edge">
<title>qs&#45;&gt;gl</title>
<path fill="none" stroke="black" d="M1253.16,-647.85C1253.51,-610.83 1254.33,-523.18 1254.74,-478.39"/>
<polygon fill="black" stroke="black" points="1258.25,-478.26 1254.84,-468.23 1251.25,-478.2 1258.25,-478.26"/>
</g>
<!-- sc -->
<g id="node32" class="node">
<title>sc</title>
<ellipse fill="none" stroke="red" cx="1179" cy="-594" rx="27" ry="18"/>
<text text-anchor="middle" x="1179" y="-590.3" font-family="Times,serif" font-size="14.00">sc</text>
</g>
<!-- qs&#45;&gt;sc -->
<g id="edge24" class="edge">
<title>qs&#45;&gt;sc</title>
<path fill="none" stroke="black" d="M1238.02,-650.83C1227.49,-640.87 1213.22,-627.37 1201.34,-616.14"/>
<polygon fill="black" stroke="black" points="1203.62,-613.47 1193.95,-609.14 1198.81,-618.56 1203.62,-613.47"/>
</g>
<!-- dh&#45;&gt;jv -->
<g id="edge25" class="edge">
<title>dh&#45;&gt;jv</title>
<path fill="none" stroke="black" d="M1551.64,-251.97C1546.69,-278.52 1538,-331.56 1538,-377 1538,-595 1538,-595 1538,-595 1538,-641.88 1570.6,-688.26 1593.09,-714.69"/>
<polygon fill="black" stroke="black" points="1590.48,-717.02 1599.7,-722.23 1595.74,-712.4 1590.48,-717.02"/>
</g>
<!-- mc -->
<g id="node49" class="node">
<title>mc</title>
<ellipse fill="none" stroke="red" cx="1536" cy="-162" rx="27" ry="18"/>
<text text-anchor="middle" x="1536" y="-158.3" font-family="Times,serif" font-size="14.00">mc</text>
</g>
<!-- dh&#45;&gt;mc -->
<g id="edge26" class="edge">
<title>dh&#45;&gt;mc</title>
<path fill="none" stroke="black" d="M1550.4,-216.05C1548.25,-208.14 1545.65,-198.54 1543.24,-189.69"/>
<polygon fill="black" stroke="black" points="1546.55,-188.52 1540.56,-179.79 1539.8,-190.36 1546.55,-188.52"/>
</g>
<!-- rg&#45;&gt;qs -->
<g id="edge27" class="edge">
<title>rg&#45;&gt;qs</title>
<path fill="none" stroke="black" d="M1219.69,-863.85C1221.7,-826.57 1234.7,-737.94 1244.42,-693.44"/>
<polygon fill="black" stroke="black" points="1247.84,-694.17 1246.68,-683.64 1241.02,-692.6 1247.84,-694.17"/>
</g>
<!-- vq -->
<g id="node31" class="node">
<title>vq</title>
<ellipse fill="none" stroke="red" cx="1189" cy="-810" rx="27" ry="18"/>
<text text-anchor="middle" x="1189" y="-806.3" font-family="Times,serif" font-size="14.00">vq</text>
</g>
<!-- rg&#45;&gt;vq -->
<g id="edge28" class="edge">
<title>rg&#45;&gt;vq</title>
<path fill="none" stroke="black" d="M1213.42,-864.41C1209.63,-856.13 1204.97,-845.92 1200.73,-836.66"/>
<polygon fill="black" stroke="black" points="1203.87,-835.11 1196.53,-827.47 1197.5,-838.02 1203.87,-835.11"/>
</g>
<!-- kt -->
<g id="node14" class="node">
<title>kt</title>
<ellipse fill="none" stroke="red" cx="1614" cy="-882" rx="27" ry="18"/>
<text text-anchor="middle" x="1614" y="-878.3" font-family="Times,serif" font-size="14.00">kt</text>
</g>
<!-- kt&#45;&gt;mt -->
<g id="edge29" class="edge">
<title>kt&#45;&gt;mt</title>
<path fill="none" stroke="black" d="M1627.57,-866.15C1636.31,-856.6 1647.83,-843.99 1657.66,-833.25"/>
<polygon fill="black" stroke="black" points="1660.28,-835.57 1664.45,-825.82 1655.12,-830.84 1660.28,-835.57"/>
</g>
<!-- kt&#45;&gt;jv -->
<g id="edge30" class="edge">
<title>kt&#45;&gt;jv</title>
<path fill="none" stroke="black" d="M1609.45,-864.15C1606.85,-839.92 1606.56,-794.96 1608.56,-766.05"/>
<polygon fill="black" stroke="black" points="1612.07,-766.09 1609.45,-755.82 1605.1,-765.49 1612.07,-766.09"/>
</g>
<!-- lh -->
<g id="node15" class="node">
<title>lh</title>
<ellipse fill="none" stroke="red" cx="1369" cy="-90" rx="27" ry="18"/>
<text text-anchor="middle" x="1369" y="-86.3" font-family="Times,serif" font-size="14.00">lh</text>
</g>
<!-- lh&#45;&gt;qs -->
<g id="edge31" class="edge">
<title>lh&#45;&gt;qs</title>
<path fill="none" stroke="black" d="M1372.36,-107.97C1377.31,-134.52 1386,-187.56 1386,-233 1386,-523 1386,-523 1386,-523 1386,-582.73 1322.55,-627.69 1283.3,-649.79"/>
<polygon fill="black" stroke="black" points="1281.47,-646.8 1274.37,-654.66 1284.82,-652.95 1281.47,-646.8"/>
</g>
<!-- dl -->
<g id="node22" class="node">
<title>dl</title>
<ellipse fill="none" stroke="red" cx="1402" cy="-18" rx="27" ry="18"/>
<text text-anchor="middle" x="1402" y="-14.3" font-family="Times,serif" font-size="14.00">dl</text>
</g>
<!-- lh&#45;&gt;dl -->
<g id="edge32" class="edge">
<title>lh&#45;&gt;dl</title>
<path fill="none" stroke="black" d="M1376.82,-72.41C1380.72,-64.13 1385.54,-53.92 1389.9,-44.66"/>
<polygon fill="black" stroke="black" points="1393.14,-46.01 1394.24,-35.47 1386.81,-43.02 1393.14,-46.01"/>
</g>
<!-- tp -->
<g id="node16" class="node">
<title>tp</title>
<ellipse fill="none" stroke="red" cx="640" cy="-306" rx="27" ry="18"/>
<text text-anchor="middle" x="640" y="-302.3" font-family="Times,serif" font-size="14.00">tp</text>
</g>
<!-- tp&#45;&gt;jm -->
<g id="edge33" class="edge">
<title>tp&#45;&gt;jm</title>
<path fill="none" stroke="black" d="M626.43,-321.74C594.58,-358.18 519.73,-455.67 547,-540 559.14,-577.56 569.45,-585.83 599,-612 617.98,-628.81 643.2,-642.48 663.03,-651.72"/>
<polygon fill="black" stroke="black" points="661.72,-654.97 672.28,-655.9 664.6,-648.59 661.72,-654.97"/>
</g>
<!-- pf -->
<g id="node56" class="node">
<title>pf</title>
<ellipse fill="none" stroke="red" cx="697" cy="-234" rx="27" ry="18"/>
<text text-anchor="middle" x="697" y="-230.3" font-family="Times,serif" font-size="14.00">pf</text>
</g>
<!-- tp&#45;&gt;pf -->
<g id="edge34" class="edge">
<title>tp&#45;&gt;pf</title>
<path fill="none" stroke="black" d="M652.37,-289.81C659.91,-280.55 669.7,-268.52 678.19,-258.09"/>
<polygon fill="black" stroke="black" points="681.06,-260.12 684.66,-250.16 675.63,-255.7 681.06,-260.12"/>
</g>
<!-- bf -->
<g id="node17" class="node">
<title>bf</title>
<ellipse fill="none" stroke="red" cx="291" cy="-450" rx="27" ry="18"/>
<text text-anchor="middle" x="291" y="-446.3" font-family="Times,serif" font-size="14.00">bf</text>
</g>
<!-- bf&#45;&gt;pr -->
<g id="edge35" class="edge">
<title>bf&#45;&gt;pr</title>
<path fill="none" stroke="black" d="M311.31,-462.09C346.25,-482.83 414,-531.03 414,-593 414,-811 414,-811 414,-811 414,-851.45 421.63,-869.56 395,-900 366.83,-932.21 317.65,-944.84 283.77,-949.8"/>
<polygon fill="black" stroke="black" points="283.24,-946.34 273.78,-951.11 284.15,-953.28 283.24,-946.34"/>
</g>
<!-- bf&#45;&gt;vx -->
<g id="edge36" class="edge">
<title>bf&#45;&gt;vx</title>
<path fill="none" stroke="black" d="M269.09,-439.41C241.4,-427.3 193.57,-406.37 162.1,-392.61"/>
<polygon fill="black" stroke="black" points="163.47,-389.38 152.9,-388.58 160.66,-395.8 163.47,-389.38"/>
</g>
<!-- mv -->
<g id="node18" class="node">
<title>mv</title>
<ellipse fill="none" stroke="red" cx="1217" cy="-522" rx="27" ry="18"/>
<text text-anchor="middle" x="1217" y="-518.3" font-family="Times,serif" font-size="14.00">mv</text>
</g>
<!-- mv&#45;&gt;qs -->
<g id="edge37" class="edge">
<title>mv&#45;&gt;qs</title>
<path fill="none" stroke="black" d="M1221.27,-539.82C1227.43,-564.15 1238.9,-609.4 1246.23,-638.31"/>
<polygon fill="black" stroke="black" points="1242.88,-639.32 1248.73,-648.15 1249.66,-637.6 1242.88,-639.32"/>
</g>
<!-- mv&#45;&gt;gl -->
<g id="edge38" class="edge">
<title>mv&#45;&gt;gl</title>
<path fill="none" stroke="black" d="M1225.81,-504.76C1230.42,-496.28 1236.16,-485.71 1241.32,-476.2"/>
<polygon fill="black" stroke="black" points="1244.54,-477.61 1246.23,-467.15 1238.39,-474.27 1244.54,-477.61"/>
</g>
<!-- ts&#45;&gt;qs -->
<g id="edge39" class="edge">
<title>ts&#45;&gt;qs</title>
<path fill="none" stroke="black" d="M1310.87,-251.06C1324.24,-276.82 1348,-329.32 1348,-377 1348,-523 1348,-523 1348,-523 1348,-573.48 1306.01,-619.61 1277.86,-644.85"/>
<polygon fill="black" stroke="black" points="1275.23,-642.5 1269.98,-651.7 1279.83,-647.78 1275.23,-642.5"/>
</g>
<!-- ng -->
<g id="node40" class="node">
<title>ng</title>
<ellipse fill="none" stroke="red" cx="1302" cy="-162" rx="27" ry="18"/>
<text text-anchor="middle" x="1302" y="-158.3" font-family="Times,serif" font-size="14.00">ng</text>
</g>
<!-- ts&#45;&gt;ng -->
<g id="edge40" class="edge">
<title>ts&#45;&gt;ng</title>
<path fill="none" stroke="black" d="M1302,-215.7C1302,-207.98 1302,-198.71 1302,-190.11"/>
<polygon fill="black" stroke="black" points="1305.5,-190.1 1302,-180.1 1298.5,-190.1 1305.5,-190.1"/>
</g>
<!-- kf&#45;&gt;dx -->
<g id="edge41" class="edge">
<title>kf&#45;&gt;dx</title>
<path fill="none" stroke="black" d="M1274,-359.7C1274,-351.98 1274,-342.71 1274,-334.11"/>
<polygon fill="black" stroke="black" points="1277.5,-334.1 1274,-324.1 1270.5,-334.1 1277.5,-334.1"/>
</g>
<!-- gv -->
<g id="node21" class="node">
<title>gv</title>
<ellipse fill="none" stroke="red" cx="773" cy="-90" rx="27" ry="18"/>
<text text-anchor="middle" x="773" y="-86.3" font-family="Times,serif" font-size="14.00">gv</text>
</g>
<!-- km -->
<g id="node24" class="node">
<title>km</title>
<ellipse fill="none" stroke="red" cx="800" cy="-18" rx="27" ry="18"/>
<text text-anchor="middle" x="800" y="-14.3" font-family="Times,serif" font-size="14.00">km</text>
</g>
<!-- gv&#45;&gt;km -->
<g id="edge42" class="edge">
<title>gv&#45;&gt;km</title>
<path fill="none" stroke="black" d="M779.4,-72.41C782.51,-64.34 786.33,-54.43 789.83,-45.35"/>
<polygon fill="black" stroke="black" points="793.13,-46.55 793.46,-35.96 786.6,-44.03 793.13,-46.55"/>
</g>
<!-- gv&#45;&gt;jm -->
<g id="edge43" class="edge">
<title>gv&#45;&gt;jm</title>
<path fill="none" stroke="black" d="M776.36,-107.97C781.31,-134.52 790,-187.56 790,-233 790,-523 790,-523 790,-523 790,-573.48 748.01,-619.61 719.86,-644.85"/>
<polygon fill="black" stroke="black" points="717.23,-642.5 711.98,-651.7 721.83,-647.78 717.23,-642.5"/>
</g>
<!-- dl&#45;&gt;qs -->
<g id="edge44" class="edge">
<title>dl&#45;&gt;qs</title>
<path fill="none" stroke="black" d="M1406.35,-35.92C1412.76,-62.4 1424,-115.35 1424,-161 1424,-523 1424,-523 1424,-523 1424,-593.58 1336.71,-635.79 1286.87,-654.14"/>
<polygon fill="black" stroke="black" points="1285.39,-650.95 1277.14,-657.6 1287.73,-657.55 1285.39,-650.95"/>
</g>
<!-- nd -->
<g id="node23" class="node">
<title>nd</title>
<ellipse fill="none" stroke="red" cx="654" cy="-810" rx="27" ry="18"/>
<text text-anchor="middle" x="654" y="-806.3" font-family="Times,serif" font-size="14.00">nd</text>
</g>
<!-- nd&#45;&gt;dg -->
<g id="edge45" class="edge">
<title>nd&#45;&gt;dg</title>
<path fill="none" stroke="black" d="M645.19,-792.76C640.58,-784.28 634.84,-773.71 629.68,-764.2"/>
<polygon fill="black" stroke="black" points="632.61,-762.27 624.77,-755.15 626.46,-765.61 632.61,-762.27"/>
</g>
<!-- km&#45;&gt;jm -->
<g id="edge46" class="edge">
<title>km&#45;&gt;jm</title>
<path fill="none" stroke="black" d="M805.53,-35.84C813.69,-62.21 828,-115.02 828,-161 828,-523 828,-523 828,-523 828,-582.73 764.55,-627.69 725.3,-649.79"/>
<polygon fill="black" stroke="black" points="723.47,-646.8 716.37,-654.66 726.82,-652.95 723.47,-646.8"/>
</g>
<!-- ns -->
<g id="node25" class="node">
<title>ns</title>
<ellipse fill="none" stroke="red" cx="93" cy="-306" rx="27" ry="18"/>
<text text-anchor="middle" x="93" y="-302.3" font-family="Times,serif" font-size="14.00">ns</text>
</g>
<!-- ns&#45;&gt;pr -->
<g id="edge47" class="edge">
<title>ns&#45;&gt;pr</title>
<path fill="none" stroke="black" d="M89.64,-323.97C84.69,-350.52 76,-403.56 76,-449 76,-811 76,-811 76,-811 76,-857.04 94.63,-869.37 129,-900 152.98,-921.37 186.99,-935.4 212.35,-943.63"/>
<polygon fill="black" stroke="black" points="211.35,-946.99 221.94,-946.6 213.42,-940.3 211.35,-946.99"/>
</g>
<!-- pn -->
<g id="node43" class="node">
<title>pn</title>
<ellipse fill="none" stroke="red" cx="74" cy="-234" rx="27" ry="18"/>
<text text-anchor="middle" x="74" y="-230.3" font-family="Times,serif" font-size="14.00">pn</text>
</g>
<!-- ns&#45;&gt;pn -->
<g id="edge48" class="edge">
<title>ns&#45;&gt;pn</title>
<path fill="none" stroke="black" d="M88.4,-288.05C86.25,-280.14 83.65,-270.54 81.24,-261.69"/>
<polygon fill="black" stroke="black" points="84.55,-260.52 78.56,-251.79 77.8,-262.36 84.55,-260.52"/>
</g>
<!-- gl&#45;&gt;kf -->
<g id="edge49" class="edge">
<title>gl&#45;&gt;kf</title>
<path fill="none" stroke="black" d="M1259.6,-432.05C1261.75,-424.14 1264.35,-414.54 1266.76,-405.69"/>
<polygon fill="black" stroke="black" points="1270.2,-406.36 1269.44,-395.79 1263.45,-404.52 1270.2,-406.36"/>
</g>
<!-- pd&#45;&gt;pr -->
<g id="edge50" class="edge">
<title>pd&#45;&gt;pr</title>
<path fill="none" stroke="black" d="M342.78,-896.56C325.54,-908.35 298.27,-925.44 277.14,-937.72"/>
<polygon fill="black" stroke="black" points="275.16,-934.82 268.21,-942.82 278.63,-940.9 275.16,-934.82"/>
</g>
<!-- jp -->
<g id="node35" class="node">
<title>jp</title>
<ellipse fill="none" stroke="red" cx="283" cy="-810" rx="27" ry="18"/>
<text text-anchor="middle" x="283" y="-806.3" font-family="Times,serif" font-size="14.00">jp</text>
</g>
<!-- pd&#45;&gt;jp -->
<g id="edge51" class="edge">
<title>pd&#45;&gt;jp</title>
<path fill="none" stroke="black" d="M343.62,-866.83C332.8,-856.87 318.14,-843.37 305.95,-832.14"/>
<polygon fill="black" stroke="black" points="308.08,-829.34 298.36,-825.14 303.34,-834.49 308.08,-829.34"/>
</g>
<!-- xv -->
<g id="node28" class="node">
<title>xv</title>
<ellipse fill="none" stroke="red" cx="718" cy="-882" rx="27" ry="18"/>
<text text-anchor="middle" x="718" y="-878.3" font-family="Times,serif" font-size="14.00">xv</text>
</g>
<!-- xv&#45;&gt;nd -->
<g id="edge52" class="edge">
<title>xv&#45;&gt;nd</title>
<path fill="none" stroke="black" d="M704.43,-866.15C695.69,-856.6 684.17,-843.99 674.34,-833.25"/>
<polygon fill="black" stroke="black" points="676.88,-830.84 667.55,-825.82 671.72,-835.57 676.88,-830.84"/>
</g>
<!-- xv&#45;&gt;jm -->
<g id="edge53" class="edge">
<title>xv&#45;&gt;jm</title>
<path fill="none" stroke="black" d="M712.35,-864.21C704.82,-827.34 695.05,-739.04 693.24,-694.17"/>
<polygon fill="black" stroke="black" points="696.74,-693.91 692.96,-684.01 689.74,-694.1 696.74,-693.91"/>
</g>
<!-- hf -->
<g id="node29" class="node">
<title>hf</title>
<ellipse fill="none" stroke="red" cx="1697" cy="-378" rx="27" ry="18"/>
<text text-anchor="middle" x="1697" y="-374.3" font-family="Times,serif" font-size="14.00">hf</text>
</g>
<!-- hf&#45;&gt;nm -->
<g id="edge54" class="edge">
<title>hf&#45;&gt;nm</title>
<path fill="none" stroke="black" d="M1697,-359.7C1697,-351.98 1697,-342.71 1697,-334.11"/>
<polygon fill="black" stroke="black" points="1700.5,-334.1 1697,-324.1 1693.5,-334.1 1700.5,-334.1"/>
</g>
<!-- vx&#45;&gt;ns -->
<g id="edge55" class="edge">
<title>vx&#45;&gt;ns</title>
<path fill="none" stroke="black" d="M122.19,-360.76C117.58,-352.28 111.84,-341.71 106.68,-332.2"/>
<polygon fill="black" stroke="black" points="109.61,-330.27 101.77,-323.15 103.46,-333.61 109.61,-330.27"/>
</g>
<!-- vq&#45;&gt;qs -->
<g id="edge56" class="edge">
<title>vq&#45;&gt;qs</title>
<path fill="none" stroke="black" d="M1196.47,-792.43C1207.5,-767.96 1228.25,-721.91 1241.31,-692.94"/>
<polygon fill="black" stroke="black" points="1244.66,-694.02 1245.58,-683.46 1238.28,-691.14 1244.66,-694.02"/>
</g>
<!-- bs -->
<g id="node39" class="node">
<title>bs</title>
<ellipse fill="none" stroke="red" cx="1151" cy="-738" rx="27" ry="18"/>
<text text-anchor="middle" x="1151" y="-734.3" font-family="Times,serif" font-size="14.00">bs</text>
</g>
<!-- vq&#45;&gt;bs -->
<g id="edge57" class="edge">
<title>vq&#45;&gt;bs</title>
<path fill="none" stroke="black" d="M1180.19,-792.76C1175.58,-784.28 1169.84,-773.71 1164.68,-764.2"/>
<polygon fill="black" stroke="black" points="1167.61,-762.27 1159.77,-755.15 1161.46,-765.61 1167.61,-762.27"/>
</g>
<!-- sc&#45;&gt;mv -->
<g id="edge58" class="edge">
<title>sc&#45;&gt;mv</title>
<path fill="none" stroke="black" d="M1187.81,-576.76C1192.42,-568.28 1198.16,-557.71 1203.32,-548.2"/>
<polygon fill="black" stroke="black" points="1206.54,-549.61 1208.23,-539.15 1200.39,-546.27 1206.54,-549.61"/>
</g>
<!-- jv&#45;&gt;ln -->
<g id="edge59" class="edge">
<title>jv&#45;&gt;ln</title>
<path fill="none" stroke="black" d="M1586.93,-736.24C1521.85,-733.82 1352.05,-723.85 1217,-684 1215.06,-683.43 1213.1,-682.76 1211.13,-682.04"/>
<polygon fill="black" stroke="black" points="1212.09,-678.64 1201.51,-678.01 1209.39,-685.1 1212.09,-678.64"/>
</g>
<!-- jv&#45;&gt;kt -->
<g id="edge60" class="edge">
<title>jv&#45;&gt;kt</title>
<path fill="none" stroke="black" d="M1618.55,-755.82C1621.15,-780.05 1621.44,-825 1619.44,-853.93"/>
<polygon fill="black" stroke="black" points="1615.93,-853.89 1618.55,-864.15 1622.9,-854.49 1615.93,-853.89"/>
</g>
<!-- jv&#45;&gt;hf -->
<g id="edge61" class="edge">
<title>jv&#45;&gt;hf</title>
<path fill="none" stroke="black" d="M1629.12,-723.04C1651,-701.65 1690.48,-658.37 1705,-612 1727.46,-540.28 1713.13,-450.01 1703.56,-405.84"/>
<polygon fill="black" stroke="black" points="1706.93,-404.88 1701.32,-395.89 1700.1,-406.42 1706.93,-404.88"/>
</g>
<!-- rc -->
<g id="node34" class="node">
<title>rc</title>
<ellipse fill="none" stroke="red" cx="1669" cy="-594" rx="27" ry="18"/>
<text text-anchor="middle" x="1669" y="-590.3" font-family="Times,serif" font-size="14.00">rc</text>
</g>
<!-- jv&#45;&gt;rc -->
<g id="edge62" class="edge">
<title>jv&#45;&gt;rc</title>
<path fill="none" stroke="black" d="M1620.42,-720.43C1629.85,-696.09 1647.54,-650.4 1658.77,-621.4"/>
<polygon fill="black" stroke="black" points="1662.11,-622.49 1662.45,-611.9 1655.58,-619.96 1662.11,-622.49"/>
</g>
<!-- hj -->
<g id="node53" class="node">
<title>hj</title>
<ellipse fill="none" stroke="red" cx="1650" cy="-522" rx="27" ry="18"/>
<text text-anchor="middle" x="1650" y="-518.3" font-family="Times,serif" font-size="14.00">hj</text>
</g>
<!-- jv&#45;&gt;hj -->
<g id="edge63" class="edge">
<title>jv&#45;&gt;hj</title>
<path fill="none" stroke="black" d="M1614.93,-719.9C1616.79,-690.3 1621.77,-627.71 1633,-576 1634.9,-567.27 1637.64,-557.94 1640.37,-549.57"/>
<polygon fill="black" stroke="black" points="1643.73,-550.55 1643.64,-539.96 1637.11,-548.3 1643.73,-550.55"/>
</g>
<!-- jv&#45;&gt;zp -->
<g id="edge64" class="edge">
<title>jv&#45;&gt;zp</title>
<path fill="none" stroke="black" d="M1634.47,-726.06C1656.29,-714.4 1691.04,-695.83 1715.75,-682.63"/>
<polygon fill="black" stroke="black" points="1717.5,-685.66 1724.67,-677.86 1714.21,-679.49 1717.5,-685.66"/>
</g>
<!-- rc&#45;&gt;hj -->
<g id="edge65" class="edge">
<title>rc&#45;&gt;hj</title>
<path fill="none" stroke="black" d="M1664.4,-576.05C1662.25,-568.14 1659.65,-558.54 1657.24,-549.69"/>
<polygon fill="black" stroke="black" points="1660.55,-548.52 1654.56,-539.79 1653.8,-550.36 1660.55,-548.52"/>
</g>
<!-- jp&#45;&gt;pr -->
<g id="edge66" class="edge">
<title>jp&#45;&gt;pr</title>
<path fill="none" stroke="black" d="M278.73,-827.82C272.57,-852.15 261.1,-897.4 253.77,-926.31"/>
<polygon fill="black" stroke="black" points="250.34,-925.6 251.27,-936.15 257.12,-927.32 250.34,-925.6"/>
</g>
<!-- mx -->
<g id="node57" class="node">
<title>mx</title>
<ellipse fill="none" stroke="red" cx="245" cy="-738" rx="27" ry="18"/>
<text text-anchor="middle" x="245" y="-734.3" font-family="Times,serif" font-size="14.00">mx</text>
</g>
<!-- jp&#45;&gt;mx -->
<g id="edge67" class="edge">
<title>jp&#45;&gt;mx</title>
<path fill="none" stroke="black" d="M274.19,-792.76C269.58,-784.28 263.84,-773.71 258.68,-764.2"/>
<polygon fill="black" stroke="black" points="261.61,-762.27 253.77,-755.15 255.46,-765.61 261.61,-762.27"/>
</g>
<!-- mf -->
<g id="node36" class="node">
<title>mf</title>
<ellipse fill="none" stroke="red" cx="735" cy="-162" rx="27" ry="18"/>
<text text-anchor="middle" x="735" y="-158.3" font-family="Times,serif" font-size="14.00">mf</text>
</g>
<!-- mf&#45;&gt;gv -->
<g id="edge68" class="edge">
<title>mf&#45;&gt;gv</title>
<path fill="none" stroke="black" d="M743.81,-144.76C748.42,-136.28 754.16,-125.71 759.32,-116.2"/>
<polygon fill="black" stroke="black" points="762.54,-117.61 764.23,-107.15 756.39,-114.27 762.54,-117.61"/>
</g>
<!-- mf&#45;&gt;jm -->
<g id="edge69" class="edge">
<title>mf&#45;&gt;jm</title>
<path fill="none" stroke="black" d="M738.36,-179.97C743.31,-206.52 752,-259.56 752,-305 752,-523 752,-523 752,-523 752,-566.91 728.23,-613.33 711.39,-640.7"/>
<polygon fill="black" stroke="black" points="708.39,-638.9 705.99,-649.22 714.3,-642.65 708.39,-638.9"/>
</g>
<!-- zx -->
<g id="node37" class="node">
<title>zx</title>
<ellipse fill="none" stroke="blue" cx="921" cy="-594" rx="27" ry="18"/>
<text text-anchor="middle" x="921" y="-590.3" font-family="Times,serif" font-size="14.00">zx</text>
</g>
<!-- zx&#45;&gt;kj -->
<g id="edge70" class="edge">
<title>zx&#45;&gt;kj</title>
<path fill="none" stroke="black" d="M935.98,-578.83C946.51,-568.87 960.78,-555.37 972.66,-544.14"/>
<polygon fill="black" stroke="black" points="975.19,-546.56 980.05,-537.14 970.38,-541.47 975.19,-546.56"/>
</g>
<!-- tg&#45;&gt;jv -->
<g id="edge71" class="edge">
<title>tg&#45;&gt;jv</title>
<path fill="none" stroke="black" d="M1479.65,-35.92C1473.24,-62.4 1462,-115.35 1462,-161 1462,-595 1462,-595 1462,-595 1462,-640.37 1479.4,-652.45 1512,-684 1531.52,-702.9 1559.13,-716.68 1580.7,-725.45"/>
<polygon fill="black" stroke="black" points="1579.55,-728.76 1590.14,-729.13 1582.09,-722.24 1579.55,-728.76"/>
</g>
<!-- bs&#45;&gt;qs -->
<g id="edge72" class="edge">
<title>bs&#45;&gt;qs</title>
<path fill="none" stroke="black" d="M1169.24,-724.49C1185.19,-713.54 1208.57,-697.49 1226.57,-685.14"/>
<polygon fill="black" stroke="black" points="1228.66,-687.95 1234.92,-679.41 1224.7,-682.18 1228.66,-687.95"/>
</g>
<!-- bs&#45;&gt;sc -->
<g id="edge73" class="edge">
<title>bs&#45;&gt;sc</title>
<path fill="none" stroke="black" d="M1146.46,-720.22C1142.33,-702.04 1137.85,-672.37 1145,-648 1148.09,-637.46 1154,-627.02 1160.03,-618.24"/>
<polygon fill="black" stroke="black" points="1162.93,-620.2 1166,-610.06 1157.28,-616.07 1162.93,-620.2"/>
</g>
<!-- ng&#45;&gt;qs -->
<g id="edge74" class="edge">
<title>ng&#45;&gt;qs</title>
<path fill="none" stroke="black" d="M1275.38,-165.79C1180.72,-176.46 866,-218.43 866,-305 866,-523 866,-523 866,-523 866,-563.45 854.97,-584.9 885,-612 940.09,-661.72 1145.57,-627.88 1217,-648 1218.95,-648.55 1220.92,-649.19 1222.88,-649.91"/>
<polygon fill="black" stroke="black" points="1221.94,-653.3 1232.52,-653.89 1224.61,-646.83 1221.94,-653.3"/>
</g>
<!-- ng&#45;&gt;lh -->
<g id="edge75" class="edge">
<title>ng&#45;&gt;lh</title>
<path fill="none" stroke="black" d="M1315.88,-146.5C1325.14,-136.83 1337.47,-123.94 1347.93,-113.02"/>
<polygon fill="black" stroke="black" points="1350.75,-115.13 1355.14,-105.49 1345.69,-110.29 1350.75,-115.13"/>
</g>
<!-- tk -->
<g id="node41" class="node">
<title>tk</title>
<ellipse fill="none" stroke="red" cx="28" cy="-90" rx="27" ry="18"/>
<text text-anchor="middle" x="28" y="-86.3" font-family="Times,serif" font-size="14.00">tk</text>
</g>
<!-- tk&#45;&gt;pr -->
<g id="edge76" class="edge">
<title>tk&#45;&gt;pr</title>
<path fill="none" stroke="black" d="M22.47,-107.84C14.31,-134.21 0,-187.02 0,-233 0,-811 0,-811 0,-811 0,-855.94 12.72,-872.15 48,-900 95.31,-937.35 166.62,-948.49 209.8,-951.75"/>
<polygon fill="black" stroke="black" points="209.67,-955.24 219.87,-952.4 210.12,-948.26 209.67,-955.24"/>
</g>
<!-- qb&#45;&gt;pr -->
<g id="edge77" class="edge">
<title>qb&#45;&gt;pr</title>
<path fill="none" stroke="black" d="M300.06,-539.04C313.72,-564.77 338,-617.22 338,-665 338,-739 338,-739 338,-739 338,-813.19 291.11,-891.14 264.65,-929.22"/>
<polygon fill="black" stroke="black" points="261.64,-927.41 258.71,-937.59 267.35,-931.46 261.64,-927.41"/>
</g>
<!-- qb&#45;&gt;bf -->
<g id="edge78" class="edge">
<title>qb&#45;&gt;bf</title>
<path fill="none" stroke="black" d="M291,-503.7C291,-495.98 291,-486.71 291,-478.11"/>
<polygon fill="black" stroke="black" points="294.5,-478.1 291,-468.1 287.5,-478.1 294.5,-478.1"/>
</g>
<!-- pn&#45;&gt;pr -->
<g id="edge79" class="edge">
<title>pn&#45;&gt;pr</title>
<path fill="none" stroke="black" d="M66.89,-251.7C56.4,-277.89 38,-330.46 38,-377 38,-811 38,-811 38,-811 38,-856.15 52.28,-871.13 87,-900 122.48,-929.5 174.96,-942.77 210.03,-948.61"/>
<polygon fill="black" stroke="black" points="209.9,-952.13 220.32,-950.19 210.97,-945.21 209.9,-952.13"/>
</g>
<!-- cb -->
<g id="node52" class="node">
<title>cb</title>
<ellipse fill="none" stroke="red" cx="74" cy="-162" rx="27" ry="18"/>
<text text-anchor="middle" x="74" y="-158.3" font-family="Times,serif" font-size="14.00">cb</text>
</g>
<!-- pn&#45;&gt;cb -->
<g id="edge80" class="edge">
<title>pn&#45;&gt;cb</title>
<path fill="none" stroke="black" d="M74,-215.7C74,-207.98 74,-198.71 74,-190.11"/>
<polygon fill="black" stroke="black" points="77.5,-190.1 74,-180.1 70.5,-190.1 77.5,-190.1"/>
</g>
<!-- cl&#45;&gt;hm -->
<g id="edge81" class="edge">
<title>cl&#45;&gt;hm</title>
<path fill="none" stroke="black" d="M226,-647.7C226,-639.98 226,-630.71 226,-622.11"/>
<polygon fill="black" stroke="black" points="229.5,-622.1 226,-612.1 222.5,-622.1 229.5,-622.1"/>
</g>
<!-- pb -->
<g id="node45" class="node">
<title>pb</title>
<ellipse fill="none" stroke="red" cx="640" cy="-378" rx="27" ry="18"/>
<text text-anchor="middle" x="640" y="-374.3" font-family="Times,serif" font-size="14.00">pb</text>
</g>
<!-- pb&#45;&gt;tp -->
<g id="edge82" class="edge">
<title>pb&#45;&gt;tp</title>
<path fill="none" stroke="black" d="M640,-359.7C640,-351.98 640,-342.71 640,-334.11"/>
<polygon fill="black" stroke="black" points="643.5,-334.1 640,-324.1 636.5,-334.1 643.5,-334.1"/>
</g>
<!-- broadcaster -->
<g id="node46" class="node">
<title>broadcaster</title>
<ellipse fill="none" stroke="black" cx="1016" cy="-954" rx="66.09" ry="18"/>
<text text-anchor="middle" x="1016" y="-950.3" font-family="Times,serif" font-size="14.00">broadcaster</text>
</g>
<!-- broadcaster&#45;&gt;rg -->
<g id="edge83" class="edge">
<title>broadcaster&#45;&gt;rg</title>
<path fill="none" stroke="black" d="M1055.53,-939.5C1094.02,-926.36 1151.88,-906.6 1187.98,-894.27"/>
<polygon fill="black" stroke="black" points="1189.23,-897.55 1197.56,-891 1186.96,-890.92 1189.23,-897.55"/>
</g>
<!-- broadcaster&#45;&gt;kt -->
<g id="edge84" class="edge">
<title>broadcaster&#45;&gt;kt</title>
<path fill="none" stroke="black" d="M1075.52,-946.03C1198.38,-931.65 1476.88,-899.05 1577.16,-887.31"/>
<polygon fill="black" stroke="black" points="1577.87,-890.75 1587.39,-886.11 1577.05,-883.8 1577.87,-890.75"/>
</g>
<!-- broadcaster&#45;&gt;pd -->
<g id="edge85" class="edge">
<title>broadcaster&#45;&gt;pd</title>
<path fill="none" stroke="black" d="M955.37,-946.54C821.48,-932.28 503.91,-898.44 395.79,-886.92"/>
<polygon fill="black" stroke="black" points="396.01,-883.42 385.7,-885.84 395.27,-890.38 396.01,-883.42"/>
</g>
<!-- broadcaster&#45;&gt;xv -->
<g id="edge86" class="edge">
<title>broadcaster&#45;&gt;xv</title>
<path fill="none" stroke="black" d="M967.46,-941.6C907.31,-927.47 806.29,-903.74 753.13,-891.25"/>
<polygon fill="black" stroke="black" points="753.7,-887.79 743.17,-888.91 752.1,-894.61 753.7,-887.79"/>
</g>
<!-- jm&#45;&gt;nd -->
<g id="edge87" class="edge">
<title>jm&#45;&gt;nd</title>
<path fill="none" stroke="black" d="M690.14,-683.82C683.12,-708.15 670.05,-753.4 661.71,-782.31"/>
<polygon fill="black" stroke="black" points="658.28,-781.57 658.86,-792.15 665,-783.52 658.28,-781.57"/>
</g>
<!-- jm&#45;&gt;xv -->
<g id="edge88" class="edge">
<title>jm&#45;&gt;xv</title>
<path fill="none" stroke="black" d="M700.62,-683.64C708.15,-720.37 717.93,-808.67 719.75,-853.66"/>
<polygon fill="black" stroke="black" points="716.26,-853.95 720.03,-863.85 723.25,-853.76 716.26,-853.95"/>
</g>
<!-- jm&#45;&gt;zx -->
<g id="edge89" class="edge">
<title>jm&#45;&gt;zx</title>
<path fill="none" stroke="black" d="M719.19,-657.51C759.63,-644.98 841.06,-619.76 887.17,-605.48"/>
<polygon fill="black" stroke="black" points="888.47,-608.74 896.99,-602.44 886.4,-602.05 888.47,-608.74"/>
</g>
<!-- jm&#45;&gt;pb -->
<g id="edge90" class="edge">
<title>jm&#45;&gt;pb</title>
<path fill="none" stroke="black" d="M693.09,-647.87C688.58,-609.08 676.17,-511.7 657,-432 654.91,-423.32 652.12,-414 649.39,-405.63"/>
<polygon fill="black" stroke="black" points="652.66,-404.37 646.17,-396 646.03,-406.6 652.66,-404.37"/>
</g>
<!-- mk -->
<g id="node50" class="node">
<title>mk</title>
<ellipse fill="none" stroke="red" cx="621" cy="-450" rx="27" ry="18"/>
<text text-anchor="middle" x="621" y="-446.3" font-family="Times,serif" font-size="14.00">mk</text>
</g>
<!-- jm&#45;&gt;mk -->
<g id="edge91" class="edge">
<title>jm&#45;&gt;mk</title>
<path fill="none" stroke="black" d="M683.54,-649.46C676.47,-639.26 667.7,-625.36 662,-612 642.79,-566.95 631.02,-510.83 625.28,-478.14"/>
<polygon fill="black" stroke="black" points="628.68,-477.28 623.56,-468.01 621.78,-478.45 628.68,-477.28"/>
</g>
<!-- jm&#45;&gt;tm -->
<g id="edge92" class="edge">
<title>jm&#45;&gt;tm</title>
<path fill="none" stroke="black" d="M671.45,-656.89C642.32,-646.77 591.26,-628.76 548,-612 545.08,-610.87 542.05,-609.67 539.02,-608.45"/>
<polygon fill="black" stroke="black" points="540.06,-605.09 529.48,-604.54 537.41,-611.57 540.06,-605.09"/>
</g>
<!-- vc -->
<g id="node48" class="node">
<title>vc</title>
<ellipse fill="none" stroke="red" cx="1650" cy="-450" rx="27" ry="18"/>
<text text-anchor="middle" x="1650" y="-446.3" font-family="Times,serif" font-size="14.00">vc</text>
</g>
<!-- vc&#45;&gt;hf -->
<g id="edge93" class="edge">
<title>vc&#45;&gt;hf</title>
<path fill="none" stroke="black" d="M1660.67,-433.12C1666.55,-424.34 1673.99,-413.26 1680.61,-403.42"/>
<polygon fill="black" stroke="black" points="1683.71,-405.07 1686.38,-394.82 1677.9,-401.17 1683.71,-405.07"/>
</g>
<!-- vc&#45;&gt;jv -->
<g id="edge94" class="edge">
<title>vc&#45;&gt;jv</title>
<path fill="none" stroke="black" d="M1636.28,-465.94C1628.09,-475.91 1618.43,-489.77 1614,-504 1591.67,-575.72 1601.74,-665.98 1608.95,-710.16"/>
<polygon fill="black" stroke="black" points="1605.51,-710.84 1610.65,-720.11 1612.41,-709.66 1605.51,-710.84"/>
</g>
<!-- mc&#45;&gt;lv -->
<g id="edge95" class="edge">
<title>mc&#45;&gt;lv</title>
<path fill="none" stroke="black" d="M1536,-143.7C1536,-135.98 1536,-126.71 1536,-118.11"/>
<polygon fill="black" stroke="black" points="1539.5,-118.1 1536,-108.1 1532.5,-118.1 1539.5,-118.1"/>
</g>
<!-- mc&#45;&gt;jv -->
<g id="edge96" class="edge">
<title>mc&#45;&gt;jv</title>
<path fill="none" stroke="black" d="M1528.89,-179.7C1518.4,-205.89 1500,-258.46 1500,-305 1500,-595 1500,-595 1500,-595 1500,-649.85 1552.36,-695.58 1586.11,-719.35"/>
<polygon fill="black" stroke="black" points="1584.43,-722.44 1594.66,-725.19 1588.38,-716.66 1584.43,-722.44"/>
</g>
<!-- mk&#45;&gt;pb -->
<g id="edge97" class="edge">
<title>mk&#45;&gt;pb</title>
<path fill="none" stroke="black" d="M625.6,-432.05C627.75,-424.14 630.35,-414.54 632.76,-405.69"/>
<polygon fill="black" stroke="black" points="636.2,-406.36 635.44,-395.79 629.45,-404.52 636.2,-406.36"/>
</g>
<!-- mh -->
<g id="node55" class="node">
<title>mh</title>
<ellipse fill="none" stroke="red" cx="583" cy="-522" rx="27" ry="18"/>
<text text-anchor="middle" x="583" y="-518.3" font-family="Times,serif" font-size="14.00">mh</text>
</g>
<!-- tm&#45;&gt;mh -->
<g id="edge98" class="edge">
<title>tm&#45;&gt;mh</title>
<path fill="none" stroke="black" d="M522.38,-578.83C533.2,-568.87 547.86,-555.37 560.05,-544.14"/>
<polygon fill="black" stroke="black" points="562.66,-546.49 567.64,-537.14 557.92,-541.34 562.66,-546.49"/>
</g>
<!-- cb&#45;&gt;pr -->
<g id="edge99" class="edge">
<title>cb&#45;&gt;pr</title>
<path fill="none" stroke="black" d="M99.98,-166.96C185.38,-180.7 452,-229.64 452,-305 452,-811 452,-811 452,-811 452,-853.34 448.89,-871.04 418,-900 381.21,-934.49 322.37,-946.55 284.2,-950.76"/>
<polygon fill="black" stroke="black" points="283.64,-947.3 274.02,-951.75 284.32,-954.27 283.64,-947.3"/>
</g>
<!-- cb&#45;&gt;tk -->
<g id="edge100" class="edge">
<title>cb&#45;&gt;tk</title>
<path fill="none" stroke="black" d="M63.56,-145.12C57.8,-136.34 50.52,-125.26 44.04,-115.42"/>
<polygon fill="black" stroke="black" points="46.81,-113.26 38.4,-106.82 40.96,-117.1 46.81,-113.26"/>
</g>
<!-- hj&#45;&gt;vc -->
<g id="edge101" class="edge">
<title>hj&#45;&gt;vc</title>
<path fill="none" stroke="black" d="M1650,-503.7C1650,-495.98 1650,-486.71 1650,-478.11"/>
<polygon fill="black" stroke="black" points="1653.5,-478.1 1650,-468.1 1646.5,-478.1 1653.5,-478.1"/>
</g>
<!-- zp&#45;&gt;rc -->
<g id="edge102" class="edge">
<title>zp&#45;&gt;rc</title>
<path fill="none" stroke="black" d="M1729.62,-650.83C1718.8,-640.87 1704.14,-627.37 1691.95,-616.14"/>
<polygon fill="black" stroke="black" points="1694.08,-613.34 1684.36,-609.14 1689.34,-618.49 1694.08,-613.34"/>
</g>
<!-- mh&#45;&gt;jm -->
<g id="edge103" class="edge">
<title>mh&#45;&gt;jm</title>
<path fill="none" stroke="black" d="M587.94,-539.79C594.12,-558.77 606.12,-589.92 624,-612 635.59,-626.32 651.88,-638.84 665.93,-648.11"/>
<polygon fill="black" stroke="black" points="664.45,-651.32 674.77,-653.72 668.2,-645.41 664.45,-651.32"/>
</g>
<!-- mh&#45;&gt;mk -->
<g id="edge104" class="edge">
<title>mh&#45;&gt;mk</title>
<path fill="none" stroke="black" d="M591.81,-504.76C596.42,-496.28 602.16,-485.71 607.32,-476.2"/>
<polygon fill="black" stroke="black" points="610.54,-477.61 612.23,-467.15 604.39,-474.27 610.54,-477.61"/>
</g>
<!-- pf&#45;&gt;mf -->
<g id="edge105" class="edge">
<title>pf&#45;&gt;mf</title>
<path fill="none" stroke="black" d="M705.81,-216.76C710.42,-208.28 716.16,-197.71 721.32,-188.2"/>
<polygon fill="black" stroke="black" points="724.54,-189.61 726.23,-179.15 718.39,-186.27 724.54,-189.61"/>
</g>
<!-- pf&#45;&gt;jm -->
<g id="edge106" class="edge">
<title>pf&#45;&gt;jm</title>
<path fill="none" stroke="black" d="M700.36,-251.97C705.31,-278.52 714,-331.56 714,-377 714,-523 714,-523 714,-523 714,-563.36 706.37,-609.61 700.78,-638.06"/>
<polygon fill="black" stroke="black" points="697.31,-637.55 698.75,-648.05 704.17,-638.94 697.31,-637.55"/>
</g>
<!-- mx&#45;&gt;pr -->
<g id="edge107" class="edge">
<title>mx&#45;&gt;pr</title>
<path fill="none" stroke="black" d="M245.16,-756.23C245.51,-793.32 246.33,-880.98 246.74,-925.71"/>
<polygon fill="black" stroke="black" points="243.25,-925.88 246.84,-935.85 250.25,-925.82 243.25,-925.88"/>
</g>
<!-- mx&#45;&gt;cl -->
<g id="edge108" class="edge">
<title>mx&#45;&gt;cl</title>
<path fill="none" stroke="black" d="M240.4,-720.05C238.25,-712.14 235.65,-702.54 233.24,-693.69"/>
<polygon fill="black" stroke="black" points="236.55,-692.52 230.56,-683.79 229.8,-694.36 236.55,-692.52"/>
</g>
<!-- vn&#45;&gt;kj -->
<g id="edge109" class="edge">
<title>vn&#45;&gt;kj</title>
<path fill="none" stroke="black" d="M875.5,-792.71C890.96,-759.05 927.41,-679.35 957,-612 966.26,-590.91 976.5,-566.89 984.02,-549.12"/>
<polygon fill="black" stroke="black" points="987.43,-550.02 988.1,-539.45 980.99,-547.3 987.43,-550.02"/>
</g>
</g>
</svg>
